<svg id="Layer_1" viewBox="0 0 512 512" xmlns="http://www.w3.org/2000/svg"><path d="m506 256c0 138.071-111.929 250-250 250s-250-111.929-250-250 111.929-250 250-250 250 111.929 250 250z" fill="#cbf3f9"/><path d="m505.412 273.019c-8.751 130.132-117.062 232.981-249.412 232.981-11.383 0-22.583-.776-33.563-2.25l-145.789-145.789 38.495-14.962 45.716-57.37 22.97 22.97 2.171-.457 8.857-21.143 34-4.339 72.501-130.737 80.315 80.316 52.345-30.614 71.393 71.393z" fill="#ace7f8"/><path d="m420.868 236.965v79.757h-205.17c-5.083-7.43-7.919-51.624-9.242-60.578l35.257-10.276 29.034-28.622 38.828-15.619 5.842 35.338h105.45z" fill="#ffdf40"/><path d="m309.575 201.626-38.828 15.619-29.034 28.622-35.257 10.276c5.148-46.31 12.027-104.219 12.027-104.219h82.875z" fill="#6cf"/><path d="m379.591 234.323-171.337 57.462c-7.233 2.569-12.092 9.451-12.092 17.127v19.844c0 2.878-1.6 5.518-4.151 6.85l-23.613 12.325-6.889-18.523 16.685-9.38v-11.116c0-15.263 9.664-28.95 24.046-34.059l171.338-57.462 6.014 16.932z" fill="#fca338"/><path d="m435.352 205.679v56.007c0 2.883-3.429 4.359-5.542 2.398-11.433-10.616-26.732-17.119-43.527-17.119-4.531 0-9.811.438-15.694 1.243-2.703.369-5.116-1.723-5.116-4.451v-32.032l36.504-12.908h26.511c3.791 0 6.864 3.073 6.864 6.864z" fill="#474747"/><path d="m435.352 311.008c0 26.604-21.286 48.314-47.721 49.033-.446.023-151.913.034-151.913.034-14.398 0-26.07-13.23-26.07-27.627s8.204-25.491 25.221-31.163c40.438-13.479 119.265-39.346 151.414-39.346 27.057 0 49.069 22.013 49.069 49.07z" fill="#474747"/><path d="m420.868 310.538c0 19.361-15.694 35.053-35.055 35.053s-35.054-15.692-35.054-35.053 15.692-35.056 35.054-35.056 35.055 15.692 35.055 35.056zm-178.403 4.317c-9.133 0-16.538 7.403-16.538 16.539s7.405 16.537 16.538 16.537 16.538-7.403 16.538-16.537-7.405-16.539-16.538-16.539z" fill="#ffdf40"/><path d="m400.679 310.537c0 8.21-6.655 14.865-14.865 14.865s-14.865-6.654-14.865-14.865 6.655-14.866 14.865-14.866 14.865 6.655 14.865 14.866z" fill="#fca338"/><path d="m335.149 327.143v15.236c0 1.774-1.438 3.211-3.211 3.211h-54.111c-1.774 0-3.211-1.438-3.211-3.211v-15.236c0-1.774 1.438-3.211 3.211-3.211h54.111c1.774 0 3.211 1.438 3.211 3.211z" fill="#fca338"/><path d="m159.791 357.962h-83.143l21.078-15.218 28.724-57.115h34.408l11.642 56.75c1.651 8.046-4.496 15.582-12.71 15.582z" fill="#474747"/></svg>